<?xml version="1.0" encoding="UTF-8" standalone="no"?>
<!-- Created with Inkscape (http://www.inkscape.org/) -->

<svg
   width="512"
   height="512"
   viewBox="0 0 512 512"
   version="1.1"
   id="svg1"
   inkscape:version="1.3 (0e150ed6c4, 2023-07-21)"
   xml:space="preserve"
   sodipodi:docname="logo.svg"
   xmlns:inkscape="http://www.inkscape.org/namespaces/inkscape"
   xmlns:sodipodi="http://sodipodi.sourceforge.net/DTD/sodipodi-0.dtd"
   xmlns:xlink="http://www.w3.org/1999/xlink"
   xmlns="http://www.w3.org/2000/svg"
   xmlns:svg="http://www.w3.org/2000/svg"><sodipodi:namedview
     id="namedview1"
     pagecolor="#505050"
     bordercolor="#eeeeee"
     borderopacity="1"
     inkscape:showpageshadow="0"
     inkscape:pageopacity="0"
     inkscape:pagecheckerboard="false"
     inkscape:deskcolor="#505050"
     inkscape:document-units="px"
     inkscape:zoom="1.1228082"
     inkscape:cx="175.00762"
     inkscape:cy="254.27316"
     inkscape:window-width="1920"
     inkscape:window-height="1009"
     inkscape:window-x="-8"
     inkscape:window-y="-8"
     inkscape:window-maximized="1"
     inkscape:current-layer="layer1" /><defs
     id="defs1"><linearGradient
       id="linearGradient6"
       inkscape:collect="always"><stop
         style="stop-color:#000000;stop-opacity:1;"
         offset="0.147651"
         id="stop7" /><stop
         style="stop-color:#141414;stop-opacity:1;"
         offset="1"
         id="stop8" /></linearGradient><linearGradient
       id="linearGradient1"
       inkscape:collect="always"><stop
         style="stop-color:#343434;stop-opacity:1;"
         offset="0"
         id="stop1" /><stop
         style="stop-color:#000000;stop-opacity:1;"
         offset="1"
         id="stop2" /></linearGradient><radialGradient
       inkscape:collect="always"
       xlink:href="#linearGradient1"
       id="radialGradient2"
       cx="258.80063"
       cy="280.47056"
       fx="258.80063"
       fy="280.47056"
       r="266.27438"
       gradientTransform="matrix(1,0,0,0.76790943,0,65.094571)"
       gradientUnits="userSpaceOnUse" /><linearGradient
       inkscape:collect="always"
       xlink:href="#linearGradient6"
       id="linearGradient8"
       x1="-1.7673759"
       y1="280.47055"
       x2="519"
       y2="280.47055"
       gradientUnits="userSpaceOnUse" /><radialGradient
       inkscape:collect="always"
       xlink:href="#linearGradient1"
       id="radialGradient8"
       gradientUnits="userSpaceOnUse"
       gradientTransform="matrix(1,0,0,0.76790943,0,65.094571)"
       cx="258.80063"
       cy="280.47056"
       fx="258.80063"
       fy="280.47056"
       r="266.27438" /></defs><g
     inkscape:label="Layer 1"
     inkscape:groupmode="layer"
     id="layer1"
     transform="matrix(0.9614143,0,0,0.9614143,7.1853756,-13.648403)"><path
       style="fill:url(#linearGradient8)"
       d="m 28.5,483.59785 c -9.398969,-2.9803 -18.165018,-9.34372 -23.4466435,-17.0203 -2.8369301,-4.12334 -7.5996167,-16.36462 -6.7122055,-17.25203 0.2425746,-0.24258 2.7795638,0.99786 5.6377537,2.75652 4.1196978,2.53487 6.6229633,3.29961 12.0785583,3.68996 12.436613,0.88983 10.120336,2.81246 81.960509,-68.03117 L 162,324.64634 V 290.05789 255.46945 L 119.25,212.96079 C 34.661345,128.84968 24.908272,119.48944 19.858801,117.57294 15.233619,115.81747 6.3279535,115.75341 1.3877136,117.44007 c -2.8127011,0.9603 -3.4003188,-1.42892 -2.2132347,-8.99886 C 0.79760926,98.090628 8.3582072,87.390008 18.068153,81.700724 28.411779,75.640153 13.168469,76 259.55355,76 482.25695,76 484.74979,76.02164 490.51354,78.004659 507.96215,84.007862 519,97.562515 519,112.98649 v 5.91146 l -3.46788,-1.44898 c -4.9189,-2.05524 -15.13833,-1.82142 -20.03212,0.45835 -2.73848,1.27572 -25.20923,23.1322 -71.25,69.30227 L 357,254.64848 v 35.96353 35.96354 l 2.75,3.09003 c 1.5125,1.69952 23.225,23.03147 48.25,47.40433 25.025,24.37286 52.52718,51.19785 61.11596,59.61107 17.27715,16.92402 20.9266,19.26187 30.12331,19.29706 6.07175,0.0232 14.63628,-2.65045 17.87294,-5.57959 1.8047,-1.63323 1.88779,-1.59322 1.88779,0.90905 0,8.7589 -9.83169,22.56169 -20.02072,28.10726 -10.8557,5.90841 4.11687,5.56628 -240.97928,5.50648 C 78.751152,484.87749 31.67958,484.60606 28.5,483.59785 Z M 322.50858,374.13502 c 5.04149,-2.2903 10.06619,-7.94198 11.43129,-12.85769 0.67338,-2.42481 1.04311,-23.11268 1.03259,-57.77733 -0.0154,-50.58547 -0.13458,-54.26027 -1.88558,-58.11609 -2.03867,-4.48931 -7.00647,-8.8338 -11.33688,-9.91446 L 319,234.78318 v -20.18149 c 0,-14.89565 -0.40104,-21.7212 -1.53119,-26.06014 -4.94358,-18.97966 -23.25874,-36.86571 -43.02111,-42.01316 -7.50791,-1.95556 -22.32107,-1.96216 -29.9876,-0.0134 -16.6774,4.23933 -30.86099,15.34135 -37.82862,29.60988 -5.79058,11.85813 -6.631,16.77698 -6.63523,38.83519 l -0.004,19.5399 -4.43323,1.82299 c -5.04835,2.07593 -8.83484,6.48086 -10.51334,12.23045 -0.82448,2.82419 -1.06594,19.46856 -0.84903,58.52599 l 0.3031,54.57942 3,4.84294 c 1.96984,3.17993 4.51341,5.64221 7.40728,7.17057 l 4.40729,2.32764 59.59271,-0.022 c 55.47916,-0.0205 59.86942,-0.14767 63.6013,-1.84302 z M 240.37906,339.25 c 0.35019,-2.6125 2.19423,-11.2445 4.09785,-19.18221 l 3.46113,-14.43221 -3.81631,-3.56779 c -13.7463,-12.85116 -5.83843,-35.52033 12.86273,-36.87305 7.03924,-0.50917 12.04305,1.01251 16.66022,5.06644 5.05759,4.44062 7.45508,9.78624 7.48813,16.69609 0.0359,7.50089 -3.24192,13.75491 -8.86748,16.91914 -1.64611,0.9259 -1.44193,2.26366 3.02331,19.80827 2.63375,10.34843 4.77125,19.15282 4.75,19.56532 -0.0213,0.4125 -9.09661,0.75 -20.16747,0.75 H 239.74234 Z M 226.43137,231.39092 c -1.18695,-7.91518 0.1697,-33.31652 2.06345,-38.63512 2.31314,-6.49644 9.36783,-14.05002 16.30257,-17.45544 4.97015,-2.44067 6.85859,-2.79918 14.70261,-2.79115 7.8915,0.008 9.65086,0.351 14.28435,2.78425 6.8006,3.57129 12.43949,9.42623 15.9363,16.54688 2.74303,5.5857 2.77935,5.90796 2.77935,24.65966 v 19 l -32.68669,0.26358 -32.68669,0.26359 z"
       id="path1" /><path
       style="fill:url(#radialGradient8)"
       d="m 504.31833,423.89892 c -3.54471,-1.02575 -16.03238,-12.71696 -71.99604,-67.40415 -19.70226,-19.25287 -42.88345,-41.78342 -51.51376,-50.06788 l -15.69147,-15.06266 72.20766,-72.18211 C 504.52456,152.00604 509.76744,147 512.9218,147 c 4.64949,0 9.41348,3.83798 10.89279,8.77549 1.59782,5.33306 1.7173,253.68352 0.12408,257.90941 -1.57846,4.18672 -6.87351,9.20229 -10.89431,10.3193 -4.0869,1.13537 -4.45403,1.13094 -8.72603,-0.10528 z"
       id="path3" /><path
       style="fill:url(#radialGradient2)"
       d="m 3.7405241,423.58226 c -4.9310016,-1.77475 -6.451837,-3.12431 -9.0325994,-8.01536 l -2.1458994,-4.0669 -0.031013,-128 c -0.030067,-124.09615 0.026889,-128.08543 1.8674872,-130.80111 2.6021444,-3.8393 7.1531814,-6.03855 10.9319594,-5.2828 3.7531519,0.75063 2.8825403,-0.082 83.3751771,79.7335 l 64.205634,63.66547 -16.70563,15.80913 c -9.1881,8.69502 -39.345963,37.86868 -67.017468,64.83035 -27.671506,26.96168 -51.521506,49.76802 -53,50.68077 -4.002791,2.47112 -8.235153,2.96311 -12.4476479,1.44695 z"
       id="path2" /></g></svg>
